<?xml version="1.0" encoding="utf-8"?>
<!-- Generator: Adobe Illustrator 20.0.0, SVG Export Plug-In . SVG Version: 6.00 Build 0)  -->
<!DOCTYPE svg PUBLIC "-//W3C//DTD SVG 1.1//EN" "http://www.w3.org/Graphics/SVG/1.1/DTD/svg11.dtd">
<svg version="1.1" id="Layer_8" xmlns="http://www.w3.org/2000/svg" xmlns:xlink="http://www.w3.org/1999/xlink" x="0px" y="0px"
	 viewBox="0 0 192.6 65.1" enable-background="new 0 0 192.6 65.1" xml:space="preserve">
<g>
	<path d="M22.9,55C16,55,12,51.9,12,44.7c0-6,4.2-10.7,10.8-10.7c3.4,0,5.3,0.7,6.8,1.3v4.5c-0.1,0-1.2,0-1.5,0
		c-0.7-2.1-2.4-3.6-5.5-3.6c-4.1,0-7.2,2.4-7.2,8.3c0,5.7,3.6,7.9,8.1,8c0.8,0,2.2-0.2,2.7-0.3v-6h3.3V54C27.8,54.7,25.1,55,22.9,55
		z"/>
	<path d="M36.4,47.2c0.2,4.5,2.4,5.3,5.4,5.3c1.1,0,2.7-0.1,4.2-0.5l0.5,1.8c-1.3,0.8-3.5,1.3-5.4,1.3c-5,0-7.9-1.4-7.9-7.8
		c0-4.6,2.9-8.5,7.4-8.5s6.3,2.9,6.3,7.4v1H36.4z M40.3,40.7c-2.2,0-3.8,1.8-3.9,4.7h6.9C43.2,42.4,42.4,40.7,40.3,40.7z"/>
	<path d="M57.5,54.8H49c-0.1-0.5-0.1-0.9-0.1-1.4l1.6-0.6c0.6-0.2,0.9-0.8,0.9-1.5l0.1-4.5v-12h-2.8v-1.6c1.2-0.3,3.4-0.6,4.7-0.6
		c0.8,0,1.2,0.3,1.2,1.2v13l0.1,5.1c0,0.5,0.1,0.7,0.4,0.7l2.4,0.5C57.6,53.8,57.6,54.4,57.5,54.8z"/>
	<path d="M71.6,55.1c-1.4,0-1.6-1.4-1.6-2.5c-0.9,0.9-2.3,2.4-4.3,2.4c-3,0-6.4-1.2-6.4-7.4c0-5.3,3.5-8.6,7.7-8.6
		c1.3,0,2.1,0.1,2.9,0.2V35h-2.8v-1.6c1.3-0.3,3.3-0.6,4.6-0.6c1,0,1.3,0.3,1.3,1.2v12.9l0.1,5.6h2.7l0.3,1.3
		C75.1,54.3,73.5,55.1,71.6,55.1z M70,41.3c-0.7-0.1-1.6-0.3-3-0.3c-3.5,0-4.3,2.9-4.3,6.6c0,3.4,1.6,4.6,4,4.6c1.4,0,2.4-0.6,3.1-1
		l0.1-4.4v-5.5H70z"/>
	<path d="M81.1,47.2c0.2,4.5,2.4,5.3,5.4,5.3c1.1,0,2.7-0.1,4.2-0.5l0.6,1.8c-1.3,0.8-3.5,1.3-5.4,1.3c-5,0-7.9-1.4-7.9-7.8
		c0-4.6,2.9-8.5,7.4-8.5s6.3,2.9,6.3,7.4v1H81.1z M85,40.7c-2.2,0-3.8,1.8-3.9,4.7H88C87.9,42.4,87.1,40.7,85,40.7z"/>
	<path d="M105.5,42.2c-0.6-0.3-1.3-0.5-2.2-0.5c-1.7,0-3.1,0.4-3.7,1v4.2l0.1,5c0,0.5,0.1,0.7,0.4,0.7l3.2,0.6c0,0.4,0,1.3-0.1,1.6
		h-9.1c-0.1-0.7-0.1-1-0.1-1.4l1.3-0.6c0.6-0.3,1-0.8,1-1.9l0.1-4v-5.8h-2.8v-1.7c1.2-0.3,3.3-0.6,4.7-0.6c0.7,0,1.2,0.3,1.2,1.1
		v1.2c0.7-1.2,2.5-2.3,4.4-2.3c1.1,0,1.8,0.2,2.3,0.4L105.5,42.2z"/>
	<path d="M115.8,54.8h-8.5c-0.1-0.5-0.1-0.9-0.1-1.4l1.6-0.6c0.6-0.2,0.9-0.8,0.9-1.5l0.1-4.5v-12H107v-1.6c1.2-0.3,3.4-0.6,4.7-0.6
		c0.8,0,1.2,0.3,1.2,1.2v13l0.1,5.1c0,0.5,0.1,0.7,0.4,0.7l2.4,0.5C116,53.8,116,54.4,115.8,54.8z"/>
	<path d="M129.1,55c-2,0-2.3-1.1-2.4-2.5c-0.7,0.7-2.7,2.5-5.3,2.5c-2.3,0-4-1.2-4-3.6c0-3.3,2.9-4.6,5.7-5c1.6-0.2,3.2-0.4,3.4-0.4
		v-2.2c0-2-0.9-2.5-3.7-2.5c-1.1,0-2.6,0.2-3.9,0.6l-0.6-2.2c1.7-0.7,3.5-1,5.3-1c2.2,0,6,0.1,6,4.3v3.9l0.2,5.5h2.8l0.2,1.2
		C132.4,54.3,130.2,55,129.1,55z M126.7,47.7c-0.1,0-1.8,0.2-3,0.5c-1.8,0.4-2.9,1.2-2.9,2.6c0,0.9,0.5,1.6,2,1.6s3.7-1.1,3.9-1.2
		V47.7z"/>
	<path d="M153.1,54.8h-7.3c-0.1-0.5-0.1-1-0.1-1.5l0.9-0.5c0.6-0.3,0.8-0.9,0.8-1.4l0.1-4.4v-2.2c0-2.4-0.3-3.5-2.9-3.5
		c-1.7,0-3.6,0.7-4.4,1.1V47l0.1,5c0,0.5,0,0.8,0.4,0.9l2.2,0.5c0,0.5,0,1.2-0.1,1.6h-7.9c-0.1-0.4-0.1-1-0.1-1.4l1.4-0.6
		c0.6-0.2,0.9-1,0.9-1.5l0.1-4.4v-5.9h-2.7v-1.6c1.3-0.3,3.4-0.6,4.7-0.6c0.8,0,1.1,0.3,1.1,1v0.9c1.1-0.8,2.9-2.1,5.6-2.1
		c4.6,0,4.9,2.2,4.9,5.3V47l0.1,5.3c0,0.4,0.1,0.5,0.4,0.6l2.2,0.4C153.3,53.8,153.2,54.5,153.1,54.8z"/>
	<path d="M167.4,55.1c-1.4,0-1.6-1.4-1.6-2.5c-0.9,0.9-2.3,2.4-4.3,2.4c-3,0-6.4-1.2-6.4-7.4c0-5.3,3.5-8.6,7.7-8.6
		c1.3,0,2.1,0.1,2.9,0.2V35h-2.8v-1.6c1.3-0.3,3.3-0.6,4.6-0.6c1,0,1.3,0.3,1.3,1.2v12.9l0.1,5.6h2.7l0.3,1.3
		C170.9,54.3,169.2,55.1,167.4,55.1z M165.7,41.3c-0.7-0.1-1.6-0.3-3-0.3c-3.5,0-4.3,2.9-4.3,6.6c0,3.4,1.6,4.6,4,4.6
		c1.4,0,2.4-0.6,3.1-1l0.1-4.4v-5.5H165.7z"/>
	<path d="M34.1,21.5c-0.9,0-1.3,0-1.8-0.1l0.1,4.3c0,0.3,0.1,0.5,0.6,0.6l1.7,0.3c0,0.2,0,0.5-0.1,0.8h-6.5C28,27,28,26.9,28,26.7
		l0.8-0.3c0.5-0.2,0.8-0.8,0.8-1.4l0.1-9.8v-4.9h-2.2V9.4c0.9-0.2,2.5-0.5,3.7-0.5c0.6,0,0.9,0.2,0.9,0.8v0.5
		c0.7-0.7,1.9-1.4,3.3-1.4c3.3,0,4.9,1.8,4.9,6C40.3,20,37.2,21.5,34.1,21.5z M34.6,10.4c-1.1,0-2.1,0.5-2.5,0.8v4.1l0.1,4.8
		c0.5,0.1,0.9,0.2,2,0.2c2.5,0,3.5-2.3,3.5-4.9C37.6,12.9,36.8,10.4,34.6,10.4z"/>
	<path d="M51.2,11.4C50.7,11.2,50,11,49.3,11c-1.3,0-2,0.4-2.7,0.8v3.5l0.1,4.3c0,0.3,0,0.5,0.3,0.5l2.5,0.4c0,0.2,0,0.6-0.1,0.8h-7
		c-0.1-0.3-0.1-0.4-0.1-0.6l1-0.5c0.4-0.2,0.8-0.7,0.8-1.5l0.1-3.4v-4.9H42V9.5C42.9,9.3,44.5,9,45.6,9c0.6,0,0.9,0.2,0.9,0.8V11
		c0.7-0.9,2-2,3.5-2c0.8,0,1.4,0.2,1.7,0.3L51.2,11.4z"/>
	<path d="M58.3,21.5c-3.5,0-5.6-1.8-5.6-6c0-3.3,2.6-6.5,5.8-6.5c3.8,0,5.6,1.9,5.6,6.1C64.1,18.3,61.6,21.5,58.3,21.5z M58.3,10.3
		c-2.4,0-2.9,2.5-2.9,4.8c0,2.6,0.6,5,3.3,5c2.4,0,2.8-2.3,2.8-4.7C61.5,12.9,61,10.3,58.3,10.3z"/>
	<path d="M77.4,9.7c-0.4,0.4-0.8,1-1.2,2.2l-3.8,9.4l-1.8,0.5l-3.7-10.4c-0.2-0.5-0.5-1.2-1-1.5c0-0.2,0-0.5,0.1-0.8h4.8
		c0,0.2,0,0.8-0.1,1h-1.4l2.9,9l2.7-7.3c0.4-0.9,0.1-1.5-0.4-1.7l-0.8-0.3c0-0.3,0-0.5,0-0.7h3.6C77.4,9.3,77.4,9.6,77.4,9.7z"/>
	<path d="M85.4,21.3h-6.6c-0.1-0.3-0.1-0.4-0.1-0.7l1.4-0.5c0.4-0.1,0.6-0.6,0.7-1.1l0.1-3.8v-4.9h-2.2V9.4c1-0.2,2.6-0.5,3.6-0.5
		c0.7,0,1,0.2,1,0.9v5.4l0.1,4.3c0,0.4,0.1,0.6,0.4,0.6l1.8,0.4C85.5,20.7,85.4,21,85.4,21.3z M82,6.5c-0.5,0-1.8-1.4-1.8-1.9
		s1.4-1.8,1.8-1.8s1.8,1.4,1.8,1.8C83.8,5,82.5,6.5,82,6.5z"/>
	<path d="M101.2,21.3h-5.7c-0.1-0.3-0.1-0.5-0.1-0.7l0.9-0.4c0.4-0.2,0.6-0.8,0.6-1.2v-3.8v-1.7c0-2-0.3-2.8-2.4-2.8
		c-1.4,0-2.4,0.4-3.4,0.8v3.7l0.1,4.1c0,0.5,0,0.7,0.4,0.8l1.8,0.4c0,0.2,0,0.5-0.1,0.8H87c0-0.3-0.1-0.4-0.1-0.6l1-0.4
		c0.4-0.2,0.7-0.6,0.7-1.3v-3.7v-4.9h-2.1V9.5c1-0.2,2.6-0.5,3.6-0.5C90.7,9,91,9.2,91,9.7v0.9c0.9-0.7,2.4-1.8,4.5-1.8
		c3.4,0,3.8,1.7,3.8,4v2.3v4.4c0,0.4,0.1,0.5,0.4,0.5l1.5,0.3C101.4,20.7,101.3,21.1,101.2,21.3z"/>
	<path d="M111.7,12.2c-0.7-0.9-1.8-2.1-2.9-2.1c-2.2,0-3.3,1.3-3.3,4.6c0,2.8,1,5,4,5c1,0,2.1-0.2,3-0.5l0.3,0.7
		c-0.6,0.6-2,1.5-4.1,1.5c-4,0-5.6-1.6-5.6-6.2c0-3.2,2.4-6.5,6-6.5c1.4,0,3.8,0.2,3.8,1.6C112.8,11.2,112.4,11.8,111.7,12.2z"/>
	<path d="M120.9,21.3h-6.6c-0.1-0.3-0.1-0.4-0.1-0.7l1.4-0.5c0.4-0.1,0.6-0.6,0.7-1.1l0.1-3.8v-4.9h-2.2V9.4c1-0.2,2.6-0.5,3.6-0.5
		c0.6,0,1,0.2,1,0.9v5.4l0.1,4.3c0,0.4,0.1,0.6,0.4,0.6l1.8,0.4C121,20.7,121,21,120.9,21.3z M117.5,6.5c-0.5,0-1.9-1.4-1.9-1.9
		s1.4-1.8,1.9-1.8c0.4,0,1.9,1.4,1.9,1.8C119.3,5,118,6.5,117.5,6.5z"/>
	<path d="M124.9,15.3c0.2,3.5,1.9,4.4,4.3,4.4c0.9,0,2.1-0.1,3.2-0.4l0.3,0.8c-0.9,0.8-2.6,1.4-4.3,1.4c-3.9,0-6-1.3-6-5.9
		c0-3.6,2.3-6.7,5.8-6.7c3.4,0,4.7,2.4,4.7,5.8v0.6L124.9,15.3L124.9,15.3z M127.7,10c-1.6,0-2.9,1.2-2.9,4.1h5.3
		C130.2,11.8,129.7,10,127.7,10z"/>
	<rect width="192.6" height="1.1"/>
	<rect y="27.4" width="25.1" height="1.1"/>
	<rect y="20.6" width="13.7" height="1.1"/>
	<rect y="13.7" width="13.7" height="1.1"/>
	<rect y="6.9" width="13.7" height="1.1"/>
	<rect x="37.6" y="27.4" width="155" height="1.1"/>
	<rect y="64" width="192.6" height="1.1"/>
</g>
</svg>
